<svg xmlns="http://www.w3.org/2000/svg" viewBox="0 0 1047.44 793.65"><defs><style>.cls-1{opacity:0.2;}.cls-2{fill:#f487a8;}.cls-3{opacity:0.8;}.cls-4{fill:#d4d5d6;}.cls-10,.cls-35,.cls-36,.cls-4,.cls-5,.cls-6,.cls-9{fill-rule:evenodd;}.cls-5,.cls-7{fill:#fff5fd;}.cls-28,.cls-6{fill:#053b63;}.cls-10,.cls-8{fill:#bfbfbf;}.cls-20,.cls-9{fill:#fff;}.cls-11{fill:#bfc0c1;}.cls-12{fill:#184655;}.cls-13{fill:#f0b49b;}.cls-14{fill:#6074b7;}.cls-15{fill:#455993;}.cls-16{fill:#f794b5;}.cls-17{fill:#c96f8d;}.cls-18{fill:#db9c86;}.cls-19{fill:#2b1f13;}.cls-21,.cls-35{fill:#19120c;}.cls-22{fill:#422d1a;}.cls-23{fill:#ff96ad;}.cls-24{fill:#9b9a9a;}.cls-25{fill:#f9b4cb;}.cls-26{fill:#f4c1b0;}.cls-27{fill:#3a2817;}.cls-29,.cls-36{fill:#dd6a73;}.cls-30{fill:#758cc6;}.cls-31{fill:#e3b25b;}.cls-32{fill:#f7cc7f;}.cls-33{fill:#854d36;}.cls-34{fill:#bf6f4e;}</style></defs><g id="Слой_2" data-name="Слой 2"><g id="Слой_2-2" data-name="Слой 2"><g id="Слой_3" data-name="Слой 3"><g id="Слой_2-3" data-name="Слой 2" class="cls-1"><g id="Слой_2-2-2" data-name="Слой 2-2"><path class="cls-2" d="M256.69,185.3c-2.27,18.54-10,90.25,32.74,155.5,18.37,28,39.57,45,61.83,62.74,31.63,25.26,44.54,27.28,64.57,41.83,74,54,62.27,147.31,96.39,151,35.31,3.64,52.52-95.92,110.93-100.93,27.85-2.41,36,19.18,75.48,28.18,52.47,11.95,99.57-12.16,127.31-26.37,101.5-52,213.53-199.74,166.4-321.9C973.32,126,924.91,71.93,866,62.54c-60.24-9.62-80.75,35.67-148.22,28.19-64.89-7.13-66.17-51.14-144.59-77.29-13.07-4.37-111.7-35.59-204.6,15.46-13.2,7.27-79.42,43.65-103.66,117.3A191.27,191.27,0,0,0,256.69,185.3Z"/></g></g><g class="cls-3"><path class="cls-4" d="M948.89,484.77a377.75,377.75,0,0,0-5,124.8,24.69,24.69,0,0,1-15.34.59c3.84-47.2-1.48-95.59-8.85-142.51a44.26,44.26,0,0,0,39-1.47C955.08,472.37,950.36,477.69,948.89,484.77Z"/><path class="cls-4" d="M1039.17,508.08a299.22,299.22,0,0,0-3.83,101.2,22.06,22.06,0,0,1-12.39.59c3-38.36-1.18-77.6-7.08-115.37a35.93,35.93,0,0,0,31.57-1.18C1044.19,498,1040.35,502.47,1039.17,508.08Z"/><polygon class="cls-5" points="680.1 623.74 372.36 623.74 372.36 248.43 526.37 100.9 680.1 248.43 680.1 623.74"/><polygon class="cls-5" points="534.25 623.74 372.89 623.74 369.94 462.34 450.78 385.04 531.63 462.34 534.25 623.74"/><polygon class="cls-6" points="539.65 88.22 364.69 255.51 351.7 241.64 526.37 74.64 539.65 88.22"/><rect class="cls-7" x="680.1" y="223.06" width="233.09" height="400.68"/><polygon class="cls-6" points="763.01 75.23 526.08 74.35 526.67 74.94 526.37 74.64 513.1 88.22 686.29 254.04 687.18 254.92 687.18 254.92 688.06 255.51 688.65 254.92 924.69 256.4 952.13 256.4 763.01 75.23"/><polygon class="cls-6" points="447 388.29 350.23 480.93 337.83 467.65 434.61 375.01 447 388.29"/><rect class="cls-8" x="520.47" y="466.77" width="79.37" height="156.97"/><path class="cls-9" d="M486,286.49a33.22,33.22,0,0,0-66.09,0h-.3v63.73h66.1Z"/><path class="cls-10" d="M483,288a29.92,29.92,0,0,0-59.6,0h-.29v58.12H483.3L483,288Z"/><polygon class="cls-6" points="512.51 375.01 434.32 375.01 434.61 375.3 434.61 375.01 426.65 383.27 528.73 480.64 529.32 481.23 529.32 481.23 529.62 481.82 529.91 481.23 624.04 481.82 512.51 375.01"/><polygon class="cls-9" points="486.25 295.64 486.25 291.8 454.97 291.8 454.97 259.64 451.13 259.64 451.13 291.8 421.63 291.8 421.63 295.64 451.13 295.64 451.13 320.13 420.75 320.13 420.75 323.67 451.13 323.67 451.13 349.04 454.97 349.04 454.97 323.67 485.36 323.67 485.36 320.13 454.97 320.13 454.97 295.64 486.25 295.64"/><path class="cls-9" d="M626.69,286.2a33.22,33.22,0,0,0-66.09,0h-.3v63.73h66.1Z"/><path class="cls-10" d="M623.74,288a29.92,29.92,0,0,0-59.6,0h-.29v58.12H624l-.3-58.12Z"/><polygon class="cls-9" points="626.99 295.34 626.99 291.8 595.71 291.8 595.71 259.35 592.17 259.35 592.17 291.8 562.37 291.8 562.37 295.34 592.17 295.34 592.17 319.83 561.49 319.83 561.49 323.67 592.17 323.67 592.17 349.04 595.71 349.04 595.71 323.67 626.1 323.67 626.1 319.83 595.71 319.83 595.71 295.34 626.99 295.34"/><path class="cls-4" d="M9.74,488.9a402.46,402.46,0,0,1,5,128.94,24.87,24.87,0,0,0,15.35.59c-3.84-48.69,1.47-98.55,8.85-146.94A41.46,41.46,0,0,1,0,469.72C3.84,476.21,8.26,481.82,9.74,488.9Z"/><path class="cls-8" d="M954.79,551.45c-12.39-10-35.7,13-48.39,27.73l-3.54-1.77a93,93,0,0,0-9.44-4.13c8.56-13.27,19.18-33.63,8.26-36S887.22,556.17,886,570.92c-2.36-.59-5-1.18-7.67-1.77h-.29a23.31,23.31,0,0,1-6.5-1.77c-46.91-15.93-49.27-89.1-184.11-57.24l-7.08,1.77V623.74H944.76a80.93,80.93,0,0,0-30.39-39.84C935,575.94,966.89,561.19,954.79,551.45Z"/><path class="cls-11" d="M64.91,581.54a42.94,42.94,0,0,0,6.2-.59c-15-3-36.59-7.67-27.74-10.32s25.38,4.42,34.23,9.14a60,60,0,0,0,10.33-3.54c-14.17-10.91-43.67-35.4-35.12-42.78s29.8,26.26,38.36,41c18.88-9.44,34.82-26,52.52-34.81-8-10.92-18.29-28-8.26-31.87S149,523.42,150.18,536.7a53.2,53.2,0,0,1,9.15-2.66c-.89-7.08-1.48-18.59,2.95-18.59s1.77,10.92-.59,18.3a40.82,40.82,0,0,1,8.56-.3c39.83,2.36,44.55,41.31,72.87,47.8s106.52-7.67,111.24,43.37L3,622.26C3.54,622.26,22.42,582.13,64.91,581.54Z"/><path class="cls-12" d="M613.12,252.27h3.24a.64.64,0,0,0,.59-.59h0a.63.63,0,0,0-.59-.59h-3.24a.64.64,0,0,0-.59.59h0A.66.66,0,0,0,613.12,252.27Z"/><rect class="cls-8" x="419.65" y="522.53" width="65.21" height="101.2"/><ellipse class="cls-8" cx="452.11" cy="525.78" rx="32.75" ry="32.16"/></g><path class="cls-13" d="M538.83,448.82c-1.66-.71-3.79,6.63-5,6.87s-.71-1.9-1.89-2.37-1.66,5.92-.71,8.28a13.17,13.17,0,0,1,.71,5.21s-7.57,30.06-9.23,33.38-28.64,27.69-28.64,27.69L500,547.29s31.72-29.82,34.56-36.92,4-43.09,4-43.09a37.23,37.23,0,0,0,2.84-10.41C541.9,451.9,540.72,449.53,538.83,448.82Z"/><path class="cls-13" d="M456.21,525.75s-18.7-24.62-27.93-32.19c0,0-12.55-31.25-13.49-33.14a.24.24,0,0,0-.24-.24,14.67,14.67,0,0,1,0-5.68c.47-2.84-1.18-9.47-2.37-9s-.23,3.07-1.66,2.84-5.2-7.58-6.86-6.63-2.6,4-1,9.7a45.6,45.6,0,0,0,5,10.66h0s4.5,30.3,9.47,39.29,19.89,39.06,30.3,40.24S456.21,525.75,456.21,525.75Z"/><path class="cls-2" d="M512.79,757a10.55,10.55,0,0,0,6.86,5.2,12,12,0,0,1,7.1,4.5,2.81,2.81,0,0,1-.57,3.94,2.85,2.85,0,0,1-1.56.56H500.71a3.24,3.24,0,0,1-3.35-3.13,2.93,2.93,0,0,1,0-.66,47.15,47.15,0,0,0,.47-5.44,10.87,10.87,0,0,1,3.55-6.4Z"/><path class="cls-14" d="M513.5,758.21a23.44,23.44,0,0,1-15.39,1.42S481.78,717,480.83,697.14v-2.37c.24-18.94-16.81-67.94-12.31-77.88s42.14,4.5,42.14,4.5l.71,34.08Z"/><path class="cls-15" d="M511.13,655.47l-30.54,41.67v-2.37c.24-18.94-16.8-67.94-12.31-77.88s42.14,4.5,42.14,4.5Z"/><path class="cls-2" d="M451.48,757a10.55,10.55,0,0,0,6.86,5.2,11.92,11.92,0,0,1,7.1,4.5,2.82,2.82,0,0,1-2.13,4.5H439.4a3.24,3.24,0,0,1-3.35-3.13,2.93,2.93,0,0,1,0-.66,45,45,0,0,0,.47-5.44,10.92,10.92,0,0,1,3.55-6.4Z"/><path class="cls-14" d="M488.64,622.1s-33.14,125-34.09,137.29c0,0-6.39,3.32-16.8-2.6,0,0-6.16-56.1,0-71.25s-1.19-61.55,14.2-72S488.64,622.1,488.64,622.1Z"/><path class="cls-13" d="M492.43,522.91l-20.36,10.42-4-14.2a44.64,44.64,0,0,0,3.78-13,61.71,61.71,0,0,0,.48-11.84l16.57,8.52a25.57,25.57,0,0,0-.71,3.79,29.15,29.15,0,0,0,.23,9A14.06,14.06,0,0,0,492.43,522.91Z"/><path class="cls-16" d="M509.45,540.9c0-1.65,10.18-8.76,10.18-8.76a29.83,29.83,0,0,0-5.92-22.48l-12.31,8.76a7,7,0,0,0-3.31.94,45.09,45.09,0,0,0-8,0c0,2.84-.71,5.68-5.92,6.39-6.86,1-13-3.78-16.1-7.1a22.18,22.18,0,0,0-9.23,1.42,18.82,18.82,0,0,0-5.21-1.42l-9.94-9.23s-11.83,3.55-13.49,21.3c0,0,13.25,10.18,14.2,18.23h0l.48,3.08L446,562.92l2.13,18.94-6.63,37.63v1a5.56,5.56,0,0,0,4.26,5.44,11.65,11.65,0,0,1,1.66.24c7.1,1,36,4.5,58.47-1.66a11.27,11.27,0,0,0,8.05-11.6L509.21,552h0C508.76,552.53,509.24,542.8,509.45,540.9Z"/><path class="cls-17" d="M456.21,598.19c-.47,13.25-1.66,24.38-9.23,28.4a7.72,7.72,0,0,0-1.66-.23,5.57,5.57,0,0,1-4.26-5.45V620l6.63-37.64-2.13-18.94a.79.79,0,0,1,.24-.47S456.92,581.38,456.21,598.19Z"/><path class="cls-18" d="M488.4,515.81c-9.46-.24-16.57-9.7-16.57-9.7l16.34.71A39.2,39.2,0,0,0,488.4,515.81Z"/><path class="cls-13" d="M493.14,510.37s-18.7,5-25.33-10.18c-7.1-16.34.71-28.17,7.1-29.12,12.78-1.66,20.12,3.32,22.25,8.52S503.32,507.76,493.14,510.37Z"/><path class="cls-19" d="M471.12,505.63a37.83,37.83,0,0,1-1.89-9.94s-5-6.39-2.13-7.81,4.5,2.13,5,1.42,1.66-13.26,5.21-12.78,16.33,4.49,22-.48-8-24.14-31-16.57C445.09,466.57,449.82,492.61,471.12,505.63Z"/><path class="cls-19" d="M456.68,469.41a9.5,9.5,0,0,1,0-5.44,8.69,8.69,0,0,0,1.19,4.5C459.29,469.89,456.68,469.41,456.68,469.41Z"/><path class="cls-19" d="M457.16,467.31a4.94,4.94,0,0,0-4.26,1.89,3.67,3.67,0,0,1,4,0Z"/><path class="cls-20" d="M478.94,491s.71-2.6,2.84-3.08,4.26,1.42,4.26,1.42A9.69,9.69,0,0,1,478.94,491Z"/><path class="cls-21" d="M483.91,488.12a3.52,3.52,0,0,0-3.79.94,12.81,12.81,0,0,0-1.18,1.9,3.52,3.52,0,0,1,2.84-3.79A4.43,4.43,0,0,1,486,489.3,20.16,20.16,0,0,0,483.91,488.12Z"/><circle class="cls-21" cx="482.72" cy="488.83" r="1.42"/><path class="cls-20" d="M494.09,487.64s.47-2.37,2.36-2.6c1.42-.24,2.13.23,2.37.71a3.4,3.4,0,0,1,.24,1.18C497.61,488.61,494.09,487.64,494.09,487.64Z"/><path class="cls-21" d="M496.69,485.27a4.76,4.76,0,0,0-2.6,2.61,3.48,3.48,0,0,1,2.6-3.32,3.2,3.2,0,0,1,2.13.24c1.18.24,0,.95.24,1.42a1.66,1.66,0,0,0-2.09-1.07Z"/><ellipse class="cls-21" cx="497.4" cy="486.21" rx="1.18" ry="1.42" transform="translate(-105.53 139.39) rotate(-14.44)"/><path class="cls-22" d="M278.91,167.36a11.84,11.84,0,0,1,14,4.27c5.91,8,3.07,7.33,5.91,11.36s9.47,2.6,9.95,9-2.37,7.58-2.37,7.58a11,11,0,0,1,.47,10.18,19,19,0,0,1-16.09,10.18s-9,5.91-18.7,4-6.4-1.89-10.18-1.66-14.68-4.26-13.5-12.07c0,0-6.86-7.1-1.18-13.73s6.39-13,9.47-21.54C259.26,166.68,274.41,165.71,278.91,167.36Z"/><path class="cls-13" d="M341.38,194.11c4.73-2.84,16.33-14.44,20.12-18.22a11.82,11.82,0,0,1,3.55-6.63c2.13-2.37,4-7.81,5.45-6.39s-2.37,5.92-.71,6.15,9.7-8.52,10.89-6.86-7.11,9-5.69,9,8.29-7.57,9.95-5.44-8.76,8.28-7.82,9.47,7.34-3.08,8.76-1.19-9.23,5.21-8.28,5.21,6.86,0,6.86,1.18-15.38,2.84-17.28,5h0c-4.26,6.15-11.83,17.51-19.17,22.25-9,5.91-29.8,18.25-29.8,18.25l-9.71-13.5C308.74,212.58,335.72,197.45,341.38,194.11Z"/><path class="cls-13" d="M341.38,320.28c-1.42,5.68-4.26,14.44-4.26,14.44.24,2.37.47,12.79,1.18,25.33l-18.22-7.81s.94-19.88,0-21.07-2.13-.23-7.34-8.52a13.93,13.93,0,0,1-1.66-6.63s-.24-5.21.95-5.68a2.36,2.36,0,0,1,2.84,1.18c.47,1,.23,2.85.71,3.79a5.55,5.55,0,0,0,4.26,1.9c1.18,0,.24-15.15.24-15.15s-.48-4.26-.71-5.68-1.19-4.74-1.19-4.74-1.18-5.21.48-5.44c.94-.24,3.31,4,4.73,8.52s2.6,9.7,3.08,9.7c1.18-.23.71-8.52.71-8.52a19.21,19.21,0,0,1-.95-5.68c-1-2.13-1.66-6.39.24-6.63a28.58,28.58,0,0,1,2.84,5.21s.94,3.55,1.42,5.44q1,4.93,1.42,9.95c.47,1.65,1,.94,1,1.18a27,27,0,0,0-.24-5.68,21.63,21.63,0,0,0-.24-5.45,53.73,53.73,0,0,1-.71-5.68c-.24-4.26,2.37-3.78,3.32.24.23,1.42.71,3.08.94,4.73,1.19,6.4,1.19,12.55,1.66,12.79.95,0,.71-11.13.71-11.13s1.66-6.15,2.84-.47a56.18,56.18,0,0,1,1.18,12.54C341.88,308.71,343.06,314.6,341.38,320.28Z"/><path class="cls-13" d="M295.24,738.32l-.94,18.47A85.66,85.66,0,0,0,292.4,767c0,8,35-6.87,27.23-10.42-.71-.23-4.5-2.84-4.74-5.44-.47-4.26-1.18-12.79-1.18-12.79Z"/><path class="cls-13" d="M218.07,740.22l-.94,18.46a85.66,85.66,0,0,0-1.9,10.18c0,8,35-6.86,27.23-10.41-.71-.24-5.45-4.5-5.68-7.34a94.22,94.22,0,0,1-.24-10.89Z"/><path class="cls-14" d="M273.7,491.43l10.42-1.18,35.51,141.08-1.19,113.39-24.85.47S282,646,282,638.19,228.25,503.5,228.25,503.5Z"/><path class="cls-14" d="M262.1,481.72s-10.89,116.71-10.89,136.35-8.75,129.72-8.75,129.72l-25.1-.23s-1.89-33.62-4.49-82.85c-.48-7.82.47-23.44,0-31.25-3.79-57.52-6.87-117.41,4.73-139C229,473.44,262.1,481.72,262.1,481.72Z"/><path class="cls-18" d="M192.25,233.17l-5.42,14c-3.08,4.5-10.18,14.68-14.68,21.54l18.47,2.61S201.74,254.5,203.16,254s1.42,1.42,10.65-1.9a17.86,17.86,0,0,0,5.45-4s.23-.47-.24-1.66.71-4.73,0-4.26-1.89,2.13-2.84,2.6.24-5.91-.71-6.62,2.6-7.1-6.39-14.21c-.71-.47-3.55-5.44-9.47-.47A27.75,27.75,0,0,0,192.25,233.17Z"/><path class="cls-2" d="M175.68,259.45l22,7.1-27,65.33s23.67,20.12,27.46,22c6.15,2.84,54.2,3.78,54.2,3.78h8.53a28.7,28.7,0,0,1,9,.95c5.92,2.13,38.35,33.62,40.95,32.43.71-.47,3.08-13.49,8.29-49.95.24-1.65,20.83,3.79,20.83,3.79s-.95,76-16.57,81.91c-5,1.89-36-14.21-43.79-18.47l4.73,81.91c1.42,2.6-28.17,16.57-68.17,8.28C214.5,497.35,197,406.45,192,397.69c-8.52-14.91-52.55-50.18-56.34-58.71C131.67,330.94,175.68,259.45,175.68,259.45Z"/><polygon class="cls-23" points="301.16 213.29 322.7 203.11 329.57 224.18 308.5 235.78 301.16 213.29"/><path class="cls-13" d="M221.63,245.48a11.33,11.33,0,0,0-3.32-6.63c-1.89-2.36-4.5-5.68-5.68-4.26s2.84,3.79,1.42,3.79-10.42-6.63-11.6-5.21,6.87,6.63,6.16,6.87-7.11-6.63-8.29-5,7.34,8,7.34,8.28c-.24.71-6.63-4.26-8-2.6s8,5.91,7.34,5.91-5.92-.71-5.92.48,11.13,4,12.78,6.15,26,23.2,31.49,22.25,28.64-20.83,29.35-26.51-2.6-12.54-6.39-12.54-25.33,20.59-26.51,20.59C240.33,256.63,221.63,245.48,221.63,245.48Z"/><path class="cls-13" d="M338.8,347a36.42,36.42,0,0,1-7.81,6.63c3.55,7.58,16.57,24.62,16.57,24.62a5.62,5.62,0,0,0,1.89-4.5c-.47-2.37-2.84-13.25-.23-17.52.71-1.18,8.28-13.73,14-24.85-4-2.37-13.49-.24-17-3.08C342.35,334,339.27,346.32,338.8,347Z"/><path class="cls-2" d="M336.2,349.87s9.46,14.44,11.36,15.86c1.42,1.42,4.26,17.28,1.89,17.52s-22.25-23-22.49-26S336.2,349.87,336.2,349.87Z"/><path class="cls-18" d="M362.23,369.28a35.93,35.93,0,0,1-3.78,9.47c7.1,4.5,27.22,12.07,27.22,12.07a5.31,5.31,0,0,0-.71-4.73c-1.66-1.66-10.65-12.78-10.65-17.52A119.36,119.36,0,0,1,376,352.24c-4.73,0-9.7-.71-14.44-1.18C361.76,357.68,362.47,368.34,362.23,369.28Z"/><path class="cls-24" d="M332.17,279.09S371.23,299.24,376,304c3.56,3.55,3.56,51.61,3.56,51.61s-13.26,3.08-20.36-.48c0,0-2.61-32.66-4.5-33.61s-42.14-10.18-42.14-10.18L311.1,291.9Z"/><path class="cls-11" d="M293.82,270.1s16.81,12.07,23.91,13.49c5.45,1.19,50.42,8.52,52.08,21.07.95,7.1-9.47,37.64-9.47,37.64l-19.41-7.1s5.44-14.44,4.5-15.86-37.4,4.26-48.06-.95-12.8-29.59-12.8-29.59Z"/><path class="cls-25" d="M288.38,219.92a116.28,116.28,0,0,0,12.78-6.63c3.08-2.37,27.7,57,40,68.88-17.52,13.73-53,29.59-53,29.59a86,86,0,0,1-8.52-27,199.64,199.64,0,0,0-4.52-28.88l-13,11.6-13.26-20.6s16.81-16.81,23.68-20.59C274.41,225.36,288.38,219.92,288.38,219.92Z"/><path class="cls-2" d="M361.52,372.83s16.57,7.82,19.42,8.29c2.13.24,10.88,13,8.75,14.44s-31.72-8.29-33.61-10.89S361.52,372.83,361.52,372.83Z"/><path class="cls-13" d="M291,208.79s3.08,11.13,4.5,11.84a4,4,0,0,1,2.6,5c-.71,3.07-7.81,3.55-11.36,2.84a15.35,15.35,0,0,1-6.15-2.61l-3.79-17.75Z"/><path class="cls-18" d="M288.38,216.13a15,15,0,0,1-10.65-4l-.48-2.6,14.21.71s.71,2.6,1.65,5.44A18.82,18.82,0,0,1,288.38,216.13Z"/><path class="cls-13" d="M270.63,194.82s-.71-6.62-4.74-5-.24,11.6,3.32,10.89S270.63,194.82,270.63,194.82Z"/><path class="cls-13" d="M282,171.86a12,12,0,0,1,10.18,4.29c3.55,4.73,8.28,18.93,3.55,29.11s-11.84,8.29-14.92,7.58-8.75-2.61-12.3-11.6S265.63,171.15,282,171.86Z"/><path class="cls-20" d="M282.93,202.4l8.29-1a3.7,3.7,0,0,1-3.31,3.79C283.17,205.71,282.93,202.4,282.93,202.4Z"/><path class="cls-26" d="M202.45,253.53c4.74,1.89,12.31-.95,15.62-2.84.24-1.42-4.26-2.37-7.33-1.66s-7.11-3.08-12.31-.23C195.11,251.64,202.45,253.53,202.45,253.53Z"/><path class="cls-26" d="M206.71,231.51c-7.34,5.45-2.13,5.45,4.5,3.79-3.79,1.66-3.55,2.84-2.6,3.79s8.75,0,9.94-1.66-2.84-6.39-4.26-7.81a30.66,30.66,0,0,1-3.08-2.84,26.7,26.7,0,0,0-4.5-4.26c-2.13-1.42-3.79-.24-6.39,1.42-3.31,2.6-2.13,5,2.84,3.31-.47.48-4.5,2.61-3.55,4.5S202.45,232.7,206.71,231.51Z"/><path class="cls-13" d="M308.24,310.1c2.6.95,4.73,6.63,5.21,6.16a67.29,67.29,0,0,1,17.75,11.6c.24.71.71,2.37.95,3.08l-9.71,2.36a53.59,53.59,0,0,1-11.36-11.83c-.47-1-1.66-3.55-2.37-4.74s-2.13-4.26-2.6-5S306.13,309.39,308.24,310.1Z"/><path class="cls-19" d="M257.13,326.67c2.84,0-.94-27.93,2.13-29.82a7.3,7.3,0,0,0,2.13-3.32c1.19-4-.94-8-3.31-11.12a12.22,12.22,0,0,0-8.76-4,5.16,5.16,0,0,0-4.26,1.9,12.06,12.06,0,0,0-10.18-5.45,11.42,11.42,0,0,0-9.7,6.16,9.84,9.84,0,0,0-8.53,1.18,10.62,10.62,0,0,0-4.49,7.81,5.28,5.28,0,0,0-6.39,1.9,8.58,8.58,0,0,0-1.66,7.57,12.52,12.52,0,0,0,3.79,6.63c-2.37,1.66-2.84,6.39-1.66,9.23a13,13,0,0,0,6.63,6.16,10.22,10.22,0,0,0,5.91,1.18,11.35,11.35,0,0,0,7.11-5c1.65-2.37,3.07-5.21,4.73-7.58C234.17,305.13,250.74,326.44,257.13,326.67Z"/><path class="cls-21" d="M221.39,321.47c-.95.47,10.18,13.25,9.23,13.25-1.89.24-10.89-5.2-12.78-6.15-2.61-1.18-10.65-10.65-11.84-13.49a8.7,8.7,0,0,1,1.66-9.24,11.48,11.48,0,0,1-3.55-6.15,8.86,8.86,0,0,1,1.66-8.05c1.65-1.89,4.26-3.31,6.39-1.89a11.53,11.53,0,0,1,4.49-7.81,10.34,10.34,0,0,1,8.29-1.42.82.82,0,0,1,.24.47,11.13,11.13,0,0,0-7.11,3.79,12,12,0,0,0-3.07,7.81,4.74,4.74,0,0,0-5.21.94,7.39,7.39,0,0,0-1.66,5.92,21.73,21.73,0,0,0,3.32,6.63c-1.19,3.08-.24,7.34,2.36,8.52a39.31,39.31,0,0,0,9,2.61A22.91,22.91,0,0,1,221.39,321.47Z"/><path class="cls-21" d="M204.08,287.4a5.87,5.87,0,0,0-1.18.71c-.24.48-.71.95-.71,1.42a1.65,1.65,0,0,0,.71,1.42,1.46,1.46,0,0,0,1.66-.47c3.08-2.37,5.21-1.42,7.57-.71.48.24.71,0,.71-.47a1.57,1.57,0,0,0-.94-1.19,11.49,11.49,0,0,0-3.55-1.42A20.59,20.59,0,0,0,204.08,287.4Z"/><path class="cls-21" d="M210.5,282.17a3.43,3.43,0,0,1,.71-.94,2.5,2.5,0,0,1,1.42-.48,1.29,1.29,0,0,1,1.18.71c.24.48-.23,1-.47,1.42a8.12,8.12,0,0,0-1.18,6.16c0,.23,0,.47-.48.47s-.71-.47-.94-.95a6.65,6.65,0,0,1-1-2.84A7.89,7.89,0,0,1,210.5,282.17Z"/><path class="cls-19" d="M213.34,308.21c.71-1.66,7.81-6.86,7.81-6.86s1.9-4.74,9.71-7.34,13.47-4.24,13.47-4.24l8.52,3.55-1.19,7.81s-1.89-1.65-8-1.89A33.54,33.54,0,0,0,221.13,308a2.35,2.35,0,0,0-.95,1.18,8.06,8.06,0,0,0-.71,4.74,5.17,5.17,0,0,0-3.79,0h0C214.76,312.71,212.63,309.63,213.34,308.21Z"/><path class="cls-13" d="M229.2,337.33,228,358.63s9.23,13.26,17.28,9.71a11.53,11.53,0,0,0,7.1-9.47s-1-4.74-2.61-10.18a38.27,38.27,0,0,1-1.65-10.89C248.37,330.46,229.2,337.33,229.2,337.33Z"/><path class="cls-18" d="M248.14,337.56c.47-7.33-18.94-.47-18.94-.47l-.24,2.13a10.93,10.93,0,0,0,2.13,2.37,26.71,26.71,0,0,0,18.47,5.92A30.54,30.54,0,0,1,248.14,337.56Z"/><path class="cls-18" d="M259.74,309.39c.23,3.56-1.19,6.63-3.32,6.63s-4-2.6-4.26-6.15,1.19-6.63,3.32-6.63S259.5,305.84,259.74,309.39Z"/><path class="cls-13" d="M220.44,306.08c-.47.47.24,25.09,8.52,32.19s23.2,8.05,27.7,1.19c5-7.58-4.5-42.14-4.5-42.14S237,293.77,220.44,306.08Z"/><path class="cls-13" d="M225.18,321.23c1.42,3.31.94,6.63-1,7.34s-4.5-1.18-5.92-4.5-.95-6.63.95-7.34S223.76,317.92,225.18,321.23Z"/><path class="cls-2" d="M293.35,778.09c2.84,2.84,11.6,4.26,11.6,4.26l.24-3.55c2.84,1,5.44,3.55,9,5.68s9,3.08,17,5,24.39-2.37,26-5c3.32-5.68-3.78-8.75-7.33-10.17a87.74,87.74,0,0,1-13-5.21c-4.74-2.84-19.18-15.63-20.83-16.1s-5.45,5.21-5.92,7.1a2.19,2.19,0,0,0,.94,2.61,17.79,17.79,0,0,1-7.33,2.13c-2.13,0-5-3.32-6.87-5.92a2,2,0,0,0-3.55.71A47.39,47.39,0,0,0,293.35,778.09Z"/><path class="cls-2" d="M213.1,776c2.37,3.08,10.42,5.92,10.42,5.92l.71-3.55c2.6,1.42,4.73,4.26,7.81,6.86s8.05,4.27,15.62,7.11,23.44.71,25.57-1.9c4-5.21-2.37-9.23-5.68-11.12-3.79-2.37-8.29-4-11.84-6.87-4-3.31-16.33-18.23-17.75-18.94s-5.92,4.5-6.63,6.4.47,2.6.47,2.6a15.85,15.85,0,0,1-7.33,1.18c-2.37-.23-4.74-4.73-6.16-7.81a1.46,1.46,0,0,0-2.6.24A45.74,45.74,0,0,0,213.1,776Z"/><path class="cls-15" d="M254.53,567.89l3.31-16.57,34.33,72.43c.71,8.76,2.13,17.28,2.84,26.28l5.44,95.63h-7.1L282.2,645.77a46.17,46.17,0,0,1-.47-8Z"/><path class="cls-21" d="M234.64,310.58a.87.87,0,0,1,.71.23c.24,0,.24.48,0,.72a1.23,1.23,0,0,1-.94.47,23.71,23.71,0,0,0-8,2.13l.24-.47A12.58,12.58,0,0,1,234.64,310.58Z"/><path class="cls-20" d="M228.73,317.44a5.17,5.17,0,0,1,3.31-3.55,5.28,5.28,0,0,1,5,1.42C234.17,318.18,228.73,317.44,228.73,317.44Z"/><path class="cls-21" d="M234.64,314.13a4,4,0,0,0-2.36,0c-.48,0-.71.24-1.19.47a3.43,3.43,0,0,0-.94.71,5.64,5.64,0,0,0-1.42,1.9,5,5,0,0,1,.94-2.37,4.39,4.39,0,0,1,2.37-1.66,4.54,4.54,0,0,1,3.08.24,6.26,6.26,0,0,1,1.89,1.66A9.56,9.56,0,0,0,234.64,314.13Z"/><circle class="cls-21" cx="233.7" cy="315.08" r="1.66"/><path class="cls-27" d="M280.33,184.17a.89.89,0,0,1,.71.24c.24.24,0,.47,0,.71s-.47.47-1,.47c-2.36-.47-3.31-1.18-8,1.19l.23-.24A6.72,6.72,0,0,1,280.33,184.17Z"/><path class="cls-27" d="M296.66,183.46l.24.24a7.69,7.69,0,0,0-7.1,1c-.47.23-.71.23-.95,0a.87.87,0,0,0-.23-.48c.23-.24.47-.24.47-.47A5.88,5.88,0,0,1,296.66,183.46Z"/><path class="cls-20" d="M274.41,191a5,5,0,0,1,3.32-2.84,5.68,5.68,0,0,1,4.49,1.65A10.33,10.33,0,0,1,274.41,191Z"/><path class="cls-28" d="M280.09,188.67a3.39,3.39,0,0,0-2.13-.24c-.47,0-.71.24-.94.24s-.71.47-.95.47a10.86,10.86,0,0,0-1.66,1.66,4.25,4.25,0,0,1,.95-2.13,4,4,0,0,1,2.37-1.42,3.32,3.32,0,0,1,2.6.47,5.59,5.59,0,0,1,1.66,1.66A16.07,16.07,0,0,0,280.09,188.67Z"/><circle class="cls-28" cx="278.67" cy="189.62" r="1.66"/><path class="cls-20" d="M289.3,188.91a4.21,4.21,0,0,1,2.84-2.61,4.34,4.34,0,0,1,3.79,1.42A7.58,7.58,0,0,1,289.3,188.91Z"/><path class="cls-28" d="M294.3,186.78a5.1,5.1,0,0,0-1.9-.24c-.23,0-.71.24-.94.24s-.48.23-.71.47l-1.42,1.42a2.87,2.87,0,0,1,.94-1.89,4.65,4.65,0,0,1,2.13-1.19,2.76,2.76,0,0,1,2.37.48,3.87,3.87,0,0,1,1.42,1.42C295.48,187.25,295,187,294.3,186.78Z"/><circle class="cls-28" cx="293.35" cy="187.75" r="1.42"/><path class="cls-21" d="M245.77,307.26c-.24.24-.47.24-.71.48s0,.47.24.71a1.06,1.06,0,0,0,1.18,0,28.64,28.64,0,0,1,8.05-1.9l-.47-.23A9.73,9.73,0,0,0,245.77,307.26Z"/><path class="cls-20" d="M246.48,313.18a5.19,5.19,0,0,1,3.31-3.55,5.3,5.3,0,0,1,5,1.42C251.93,313.89,246.48,313.18,246.48,313.18Z"/><path class="cls-21" d="M252.64,309.87a4,4,0,0,0-2.37,0c-.48,0-.71.23-1.19.47a3.43,3.43,0,0,0-.94.71,5.64,5.64,0,0,0-1.42,1.9,5,5,0,0,1,.94-2.37,4.39,4.39,0,0,1,2.37-1.66,4.49,4.49,0,0,1,3.08.24,6.36,6.36,0,0,1,1.89,1.65A16.57,16.57,0,0,0,252.64,309.87Z"/><circle class="cls-21" cx="251.45" cy="310.81" r="1.66"/><path class="cls-29" d="M249.56,331.41h0c.47-.47,1.18-.47,1.42,0a.88.88,0,0,1,.2,1.22,1.26,1.26,0,0,1-.2.2c-.48.47-.95.71-1.42,1.18a11.51,11.51,0,0,1-1.66.71,7.41,7.41,0,0,1-3.31.24,16.6,16.6,0,0,1-3.08-1.18c-.47-.24-.95-.71-1.42-.95l-1.18-.95a.44.44,0,0,1-.08-.63l.08-.08c0-.23.47-.23.71-.23h0l1.18.94c.47.24.71.48,1.18.71a5.32,5.32,0,0,0,2.61.71,9.1,9.1,0,0,0,2.6-.23c.47-.24.71-.48,1.18-.71A5.46,5.46,0,0,0,249.56,331.41Z"/><path class="cls-13" d="M721.1,523.15,709.26,629.2s5.92,22.49,5.21,28.88-13,89.95-13,89.95l.47,4.73v13.73H656.47a194.4,194.4,0,0,0,23.2-12.78,9.25,9.25,0,0,0,3.79-6.63c3.55-25.8-3.55-111.49-3.55-111.49l-5.68-111.73Z"/><path class="cls-22" d="M759,383c-7.57,2.84-12.78-12.54-15.39-5-8.52-6.63-15.62-14.91-25.8-19.88A61.23,61.23,0,0,1,688,321.23c-5.21-17.75-2.61-35,8-49.47h0c13-13.26,25.81-10.18,25.81-10.18s14.2-1.19,22,5.92A36.06,36.06,0,0,1,755.89,290c.24,4,2.13,6.16,1.9,9.95-.24,9.23,9.7,24.38,14.2,32.19,2.37,4.26,20.83,12.07,22.25,16.57C801.58,370.7,763.71,384,759,383Z"/><path class="cls-27" d="M733.17,264.89c26.27,10.18,19.88,31.49,34.56,48.29,8,8.76,37.16,18.47,34.32,27.22,4-11.59-24.85-18.7-33.14-30.77-10.18-15.15-16.8-43.08-29.35-46.87C737,262.05,726.3,269.63,733.17,264.89Z"/><path class="cls-22" d="M690.09,286.67A57.55,57.55,0,0,0,688,328.81a79.07,79.07,0,0,0,23,31.95,109.26,109.26,0,0,1-21.07-33.37,49.26,49.26,0,0,1-2.13-22.73,65.17,65.17,0,0,1,4-15.15C691,289.51,690.8,286.67,690.09,286.67Z"/><path class="cls-2" d="M690.32,368.81c5.68-7.57,29.59-29.12,32.2-29.12,7.81.24,19.17-.23,23.91,2.13l12.3,47.11c-.71,3.55-16.8,51.84-15.86,63.44h-.23A36.26,36.26,0,0,1,691.51,450h0a288.61,288.61,0,0,0-1.9-31.24C686.54,395.8,676.12,387.27,690.32,368.81Z"/><path class="cls-13" d="M714.94,404.08s-6.15,16.57-7.1,18.46c0,0-35.51-3.78-50.89-6.62-.24,0-.48,0-.48-.24s-.71,0-.71-.47a96.22,96.22,0,0,0-4-9.95,4.32,4.32,0,0,0-1.18-1.65c-1.19-1.19-7.11-8.52-7.11-8.52s-1.65.71-1.18,3.31,4.5,7.1,3.55,7.34h0a6.84,6.84,0,0,1-3.08-.24,8.67,8.67,0,0,0-4.26.24,2.63,2.63,0,0,0-2.13,2.84,9.43,9.43,0,0,1,0,2.6c-.47,1.42.24,14,2.37,14.92a36.2,36.2,0,0,0,9.23.71,10.46,10.46,0,0,1,4.74.47c.23,0,.71.24.94.24h0c10.89,3.07,47.58,13.73,47.58,13.73s17.76,4,20.12,1.65,13.73-33.61,13.73-33.61Z"/><path class="cls-25" d="M749,370.94c5,13.49-9.23,46.4-9.23,46.4s-27-9-32.2-13.5c0,0,13.73-31.95,14.68-34.08a16,16,0,0,1,15.86-9.71C741.93,360.05,749,370.94,749,370.94Z"/><path class="cls-18" d="M737,315.31c-.48,8.76-5.45,21.54-.71,28.88-6.39,6.39-20.83,4.5-22.49,2.13.24-1.65,5-18.46,5-24.14A40.57,40.57,0,0,0,731,316.73a9.75,9.75,0,0,1,3.08-1.65C734.83,314.13,735.77,314.37,737,315.31Z"/><path class="cls-13" d="M746,305.84a7.41,7.41,0,0,1-6.63,5,87.38,87.38,0,0,1-4,11.13,26,26,0,0,1-8.52,9,16.26,16.26,0,0,1-12.31,2.36c-6.87-1.42-12.55-14.91-15.15-27-.24-1.19-.47-2.13-.71-3.32a56,56,0,0,1-1-10.18c6.39-2.36,8.29-8.28,9.47-15.15,3.55,11.13,14,15.39,18.46,17.05,5.92,2.13,14,3.79,19.42.71A11.58,11.58,0,0,1,746,305.84Z"/><path class="cls-27" d="M717.07,296.61a12.48,12.48,0,0,1,9.94-2.37,25.2,25.2,0,0,0-.94-2.36A11.39,11.39,0,0,0,715.89,294C715.65,295.19,716.36,295.67,717.07,296.61Z"/><path class="cls-27" d="M703.82,298.51a11.79,11.79,0,0,0-10.18,0,12.12,12.12,0,0,1,.47-2.61,12.33,12.33,0,0,1,10.42-.23A17.61,17.61,0,0,1,703.82,298.51Z"/><path class="cls-22" d="M734.83,339a101.69,101.69,0,0,0-1.9,22.49,33.35,33.35,0,0,0,7.58,20.6,24.26,24.26,0,0,0,12.54,7.33,48.16,48.16,0,0,0,14.21,1.19c5.91-.24,12.07-.95,17-4.5a25.66,25.66,0,0,0,8.52-14.2c2.61-10.42-3.31-18.7-8.28-27.93a48.63,48.63,0,0,0-19.65-20.6c-4-2.13-6.39-7.57-10.89-9-2.13-.71-4.5-1.19-6.86-1.9-1.66-.23-4.74-1.66-6.4-1.18-2.84.95-2.6,9.23-3.07,12.07C736.48,328.33,735.77,333.78,734.83,339Z"/><path class="cls-27" d="M763.94,392.48c-9.7-.71-23.2-9.47-24.38-18.23,6.16,6.87,27.22,22.49,42.61-6.86,12.31-23.67-30.3-38.11-31-72.67a36,36,0,0,0-11.36-23c-14.21-11.6-32.2-.95-32.2-.95s-8.28-5-16.33,9.71c5.21-12.79,11.36-19.42,21.31-18.23,15.38-7.34,36.92,0,42.37,17.28,2.6,8.28,2.6,27.93,11.6,36,4.49,4,22.72,18.46,27.22,28.88C807.5,374.49,787.85,393.19,763.94,392.48Z"/><path class="cls-13" d="M757.55,545.42c2.61.71,6.63,91.85,8.52,95.87,13.5,25.57,16.57,103.45,16.57,103.45l4,11.36c-4.5,3.79-9.71,3.79-15.63-.47l.71-12.31L737.9,646.27l-18.7-98.95Z"/><path class="cls-30" d="M670,592l-1.66-63a121.79,121.79,0,0,1,10.89-51.61l12.54-27.22a82.13,82.13,0,0,0,15.15,3.55,153.74,153.74,0,0,0,34.56-1.42,2.19,2.19,0,0,0,.24,1.18c2.13,9.24,13.73,29.83,18.47,58,5.44,32,6.86,76.46,6.15,80.25A213.64,213.64,0,0,1,670,592Z"/><path class="cls-2" d="M771.28,755.6a21.9,21.9,0,0,0,15.62.24l1,2.37,3.31,11.36s-13.49,3.32-20.59-.47Z"/><path class="cls-2" d="M702.4,769.57H655.29c-1.66-.24-2.13-1.66-1.66-2.37,1.19-1.89,6.87-3.31,13-6.15,10.89,1.18,33.62-6.16,35.27-8.76C702.87,757.5,703.34,769.33,702.4,769.57Z"/><path class="cls-15" d="M732.7,453.79c22.48,58.71,14.2,119.07,9.7,143,9.47-1.19,14.44-2.37,23.91-3.55,1.66-30.78,1-78.36.47-81-4.49-21.07-14.91-41.66-23.67-61.31C739.8,452.13,736.7,452.61,732.7,453.79Z"/><path class="cls-31" d="M608.18,624.94c4,1.65,16.81-4.26,23-7.58,7.11-3.55,11.6-5.92,20.13-10.41,5.2-2.61,13-5,14.44-2.13.71,6.15-8.05,11.83-13.73,10.89-3.32.94-15.15,9.94-18,12.07-5.69,4.26-12.08,7.81-19.89,14S598,651.45,594,649.08s-1-14.44,1.66-18.22S608.18,624.94,608.18,624.94Z"/><path class="cls-31" d="M564.86,710.39c-1.18,13.26,10.66,24.15,11.13,37.17.47,12.54-19.41,19.41-9.94,34.32,2.6,3.55,11.6,5,18.93,5A6.75,6.75,0,0,1,592.3,793c0,.17,0,.33,0,.5H566.26c-17-4.73-20.12-12.55-22-15.86-2.84-5.68-43.09-47.11,9-15.39,12.78,7.81-17.75-16.57-18.7-25.09C537.17,726.73,566.26,692.64,564.86,710.39Z"/><path class="cls-32" d="M559,565.28c4.26-2.13,10.17-1.89,15.38-5.44s8.29-8.28,11.13-8.28,11.36,5,5.92,16.33c0,0-8.29,16.1-5.92,25.33,1.18,5,7.57,14,17.52,23.43s16.33,35,9.7,50.19-26.51,23.9-36.93,32.9-13.49,24.85-13.49,24.85c4.26,15.15,9.47,32-4.73,44S544,784.25,544,784.25a58.56,58.56,0,0,0,19.41,1.89,6.78,6.78,0,0,1,7.11,6.42c0,.23,0,.46,0,.68H554.21a38,38,0,0,1-11.36-1.65c-14-4.5-15.86-4.27-16.1-7.82s14-11.12,3.55-21.77-17.75-16.57-18.7-25.1c-22.25,10.66-53.73,13.5-75.75-1.18-2.84-2.13,9,1.18,25.1,2.84s36-3.55,44.5-16.57c6.63-9.94,4.26-18.7,17.75-38.11s23.2-25.09,25.09-39.53,3.55-16.81,1.66-37.64-3.31-22-.47-30.3A25.49,25.49,0,0,1,559,565.28Z"/><path class="cls-33" d="M568.18,569.31c-.24,1-.24,1.66.71,1.89a1.73,1.73,0,1,0,1.19-3.24l-.24-.07C569.12,567.89,568.63,568.13,568.18,569.31Z"/><path class="cls-31" d="M615.52,653.82a34.06,34.06,0,0,1-.95,7.1c-8.28,6.15-19.17,7.57-20.59,5.44C602,656.42,612,653.82,615.52,653.82Z"/><path class="cls-31" d="M558,600.56c-1.18,2.36-10.42-.48-11.36-1.19s1.65-13.25,3.55-17.75,4.23-3.06,4.23-3.06C552.32,583.75,559.42,598.43,558,600.56Z"/><path class="cls-34" d="M583.33,552.53c.71,1.65,1.65,2.13,2.37,1.18a3.41,3.41,0,0,1,1.89-1.18c.24-.48-1-1.19-2.13-1.19S583.09,552,583.33,552.53Z"/><path class="cls-32" d="M606.29,640.32c4.26,1.9,18.23-4.73,25.09-8.28,7.81-4,12.55-6.39,22-11.6,5.68-2.84,14.2-5.44,15.86-2.37.94,6.87-8.76,13-14.92,11.84-3.55,1.18-16.57,10.89-19.64,13-6.4,4.73-13.26,8.52-21.78,15.15s-17.52,10.65-22,8S590,650.27,592.8,646C595.64,642.48,606.29,640.32,606.29,640.32Z"/><path class="cls-35" d="M478,486.46a4.73,4.73,0,0,1,3.79-3.08c2.6-.24,4,.47,3.31,1.42s-3.08-.24-4.26,0S478.46,486.46,478,486.46Z"/><path class="cls-35" d="M497.87,481.25a2.91,2.91,0,0,0-2.36-.47c-1.66.47-2.37,1.65-1.66,2.13s1.89-1.19,2.6-1.19a4.41,4.41,0,0,1,1.66.48Z"/><path class="cls-20" d="M717.07,304.42s4.5,2.37,11.13-2.13l-1.9-1.89-5.2-.24a17.15,17.15,0,0,0-2.13,1.42,5.17,5.17,0,0,0-1.19,1.19A3.14,3.14,0,0,0,717.07,304.42Z"/><path class="cls-28" d="M717.07,304.42a6.42,6.42,0,0,1,4.74-3.78,7.07,7.07,0,0,1,6.39,1.65,4.65,4.65,0,0,0-2.13-2.6,6.5,6.5,0,0,0-5.92,0A7.31,7.31,0,0,0,717.07,304.42Z"/><ellipse class="cls-28" cx="721.26" cy="302.46" rx="2.37" ry="2.13" transform="translate(295.28 958.39) rotate(-79.75)"/><path class="cls-20" d="M705.24,304.9a11.45,11.45,0,0,1-5.92,1.42l-.24-.48c-.23-1.18-.23-1.89-.47-3.07l.47-.48a10.09,10.09,0,0,1,2.61-.47c.88.35,1.75.74,2.6,1.18Z"/><path class="cls-28" d="M698.61,304.42c.47-1.89,4-3.07,6.63.71-.24-1.18-.24-1.89-1-2.6C703.34,301.35,698.14,299.93,698.61,304.42Z"/><circle class="cls-28" cx="700.5" cy="304.19" r="2.13"/><path class="cls-9" d="M709.73,321.7a11.42,11.42,0,0,0,3.08.24,15.9,15.9,0,0,0,7.1-1.42l3.32-1.18a37.22,37.22,0,0,1-5.45,4.73C714.47,326.44,712.81,324.07,709.73,321.7Z"/><path class="cls-36" d="M709.26,321.7a10.4,10.4,0,0,1,2.13-.47,18.75,18.75,0,0,1,2.13.24,6.51,6.51,0,0,1,1.9-1c.94-.24,8-1.42,8-1.42a91.78,91.78,0,0,1-9.94,3.55,10.22,10.22,0,0,1-3.31-.71A2.61,2.61,0,0,0,709.26,321.7Z"/><path class="cls-36" d="M710.21,321.7a7.5,7.5,0,0,0,4,2.61c2.13.23,7.1-4.5,7.1-4.5l2.13-.71s-3.07,7.57-8,7.81c-3.08.24-5.92-5.21-5.92-5.21Z"/><path class="cls-29" d="M496.69,500.19a14,14,0,0,1-2.37,1.65,4.09,4.09,0,0,1-2.84.48,22.61,22.61,0,0,1-5.44-1.19c-.24,0-.24-.23-.24-.47s.24-.24.47-.24h0a19.7,19.7,0,0,0,5.21.95,7.74,7.74,0,0,0,4.5-1.89h0a.45.45,0,0,1,.63-.08.3.3,0,0,1,.08.08c.24.23.24.71,0,.71Z"/></g></g></g></svg>